<svg xmlns="http://www.w3.org/2000/svg" viewBox="0 0 64 64">
  <defs>
    <linearGradient id="bg" x1="0" y1="0" x2="1" y2="1">
      <stop offset="0" stop-color="#0f172a" />
      <stop offset="1" stop-color="#1d4ed8" />
    </linearGradient>
  </defs>
  <rect x="4" y="4" width="56" height="56" rx="14" fill="url(#bg)" />
  <!-- Simplified buildings skyline -->
  <rect x="14" y="30" width="8" height="18" rx="1.5" fill="#e5e7eb" />
  <rect x="26" y="24" width="10" height="24" rx="1.5" fill="#f97316" />
  <rect x="40" y="28" width="10" height="20" rx="1.5" fill="#22c55e" />
  <!-- Windows -->
  <g fill="#020617">
    <rect x="16" y="32" width="2" height="2" />
    <rect x="18.5" y="32" width="2" height="2" />
    <rect x="21" y="32" width="2" height="2" />
    <rect x="16" y="35" width="2" height="2" />
    <rect x="18.5" y="35" width="2" height="2" />
    <rect x="21" y="35" width="2" height="2" />
  </g>
  <!-- 'b' monogram for buildings md -->
  <path
    fill="#e5e7eb"
    d="M30 18h4.8c4.4 0 7.2 2.4 7.2 6 0 3.6-2.8 6-7.2 6H34v4h-4v-16Zm4.4 8.8c2 0 3.2-1 3.2-2.8s-1.2-2.8-3.2-2.8H34v5.6h.4Z"
  />
</svg>

